<?xml version="1.0" encoding="utf-8" ?>
<svg baseProfile="full" version="1.1" xmlns="http://www.w3.org/2000/svg" xmlns:ev="http://www.w3.org/2001/xml-events" xmlns:xlink="http://www.w3.org/1999/xlink">
    <g id="rectangle-tag">
        <rect x="-6" y="-2.5" width="12" height="5" />
    </g>
    <g id="triangle-tag">
        <path  d="M 3.1409425e-7,-7.1069207 5.7650623,2.8784603 l -11.5301246,-6e-7 z" />
    </g>
    <g id="hexagon-tag">
        <path d="m 0.0161133,-6.0583333 5.2339915,3.8366023 -2.031433,6.1633977 c 0,0 -6.4894866,-0.027414 -6.4894866,-0.027414 l -1.97929,-6.1803395 5.2662181,-3.7922467" />
    </g>
    <g id="capsule-tag">
        <rect x="-6" y="-2.5" width="12" height="5" rx="2.5" ry="2.5" />
    </g>
    <g id="circle-tag">
        <circle r="5" />
    </g>
    <g id="door-tag">
        <circle r="5" transform="translate(0 2)" />
        <line x1="-5" x2="5" transform="translate(0 2)" />
    </g>
    <g id="window-tag">
        <path  d="m 0.0161133,-6.0583333 5.2339915,3.8366023 -2.031433,6.1633977 c 0,0 -6.4894866,-0.027414 -6.4894866,-0.027414 l -1.97929,-6.1803395 5.2662181,-3.7922467"/>
    </g>
    <g id="space-tag">
        <rect x="-6" y="-2.5" width="12" height="5" transform="translate(0 5)" />
    </g>
    <g id="elevation-arrow">
        <path  d="M -2.34375e-4,-7.0713344 -7.0002344,9.3125e-4H -4.900625A 4.90099,4.90099 0 0 1 -2.34375e-4,-4.9014125 4.90099,4.90099 0 0 1 4.9001562,9.3125e-4h 2.171875zZ" />
    </g>
    <g id="elevation-tag">
        <circle r="5" />
        <line x1="-5" y1="0" x2="5" y2="0" />
    </g>
        <g id="section-arrow">
        <path d="M -2.34375e-4,-7.0713344 -7.0002344,9.3125e-4H -4.900625A 4.90099,4.90099 0 0 1 -2.34375e-4,-4.9014125 4.90099,4.90099 0 0 1 4.9001562,9.3125e-4h 2.171875zZ" />
    </g>
    <g id="section-tag">
        <circle r="5" />
        <line x1="-5" y1="0" x2="5" y2="0" />
    </g>
    <g id="dot">
        <circle r="1"/>
    </g>
    <g id="setout-tag">
        <circle fill="white" stroke="black" r="2.5" style="stroke-width: 0.5"/>
        <path d="M 0 0 L -2.5 0 A 2.5 2.5 0 0 1 0 -2.5 Z" fill="black"/>
        <path d="M 0 0 L 2.5 0 A 2.5 2.5 0 0 1 0 2.5 Z" fill="black"/>
        <text x="3" y="-8" class="regular" text-anchor="start" dominant-baseline="auto" data-type="text-template"></text>
        <text x="3" y="-4" class="regular" text-anchor="start" dominant-baseline="auto" data-type="text-template"></text>
    </g>
    <g id="setout-point">
        <circle  r="2.5"/>
        <path id="setp1" d="M 0 0 L -2.5 0 A 2.5 2.5 0 0 1 0 -2.5 Z"/>
        <path id="setp2" d="M 0 0 L 2.5 0 A 2.5 2.5 0 0 1 0 2.5 Z"/>
    </g>
    <g id="control-point">
        <path  d="M 2.286165,1.4798666 H -1.0000316e-7 -2.2861651 L -1.1430826,-0.5000101 -1.0000316e-7,-2.479888 1.1430827,-0.5000101 Z" />
        <circle r="0.5"  />
    </g>
    <g id="traverse-point">
        <path d="M -2,-2 2,2 M -2,2 2,-2" />
    </g>
    <g id="spot-elevation">
        <path d="M 0,-2 0,2 M -2,0 2,0" />
    </g>
</svg>
